<svg xmlns="http://www.w3.org/2000/svg" enable-background="new 0 0 47.5 47.5" viewBox="0 0 47.5 47.5" id="file"><defs><clipPath id="a"><path d="M0 38h38V0H0v38Z"></path></clipPath></defs><g clip-path="url(#a)" transform="matrix(1.25 0 0 -1.25 0 47.5)"><path fill="#269" d="M0 0a4 4 0 0 1 4-4h24a4 4 0 0 1 4 4v17a4 4 0 0 1-4 4h-9c-3.562 0-3 5-8.437 5H4a4 4 0 0 1-4-4V0Z" transform="translate(1 8)"></path><path fill="#55acee" d="M0 0h-6.562C-12 0-11.945-5-15.508-5h-9c-2.209 0-4.181-1.791-4.406-4l-.492-3.874L-29.93-17l-.02.002c-.115-.606-.672-.999-1.3-.999-.643 0-1.106.507-1.074 1.143-.002-.049-.012-.096-.012-.146a3.989 3.989 0 0 1 3.4-3.939 2.82 2.82 0 0 1 .6-.061h26c2.209 0 4.182 1.791 4.406 4L3.594-4C3.818-1.791 2.209 0 0 0" transform="translate(33.336 25)"></path></g></svg>